<svg xmlns="http://www.w3.org/2000/svg" viewBox="0 0 1040 300" width="1040" height="300">

  <g transform="translate(800,42.0)">
  <g transform="translate(108,108) scale(1.08)">
    <path d="M 0 -82 L 70 -54 L 70 10 C 70 52 38 74 0 87
             C -38 74 -70 52 -70 10 L -70 -54 Z" fill="#F6F1E5"/>
    <path d="M 0 -82 L 70 -54 L 70 10 C 70 52 38 74 0 87
             C -38 74 -70 52 -70 10 L -70 -54 Z" fill="none"
          stroke="#D9BE7C" stroke-width="4.6" transform="scale(0.855)"/>
    <g transform="translate(-33.9,42)"><path d="M36.4 0 30.4 -35.5V-59.8Q30.4 -64.6 28.8 -66.1Q27.1 -67.5 24.1 -67.8L14.8 -69L18.1 -88.8L38.7 -86.2Q48 -85.2 52.9 -79.4Q57.8 -73.6 57.8 -63.1V-34.9L62.2 0ZM11.7 3.1 1.8 -18.1Q13.3 -21.6 20.5 -26.6Q27.6 -31.6 30.8 -37.6L39.8 -24.1Q36.9 -18 33.5 -12.8Q30.1 -7.5 25 -3.5Q19.8 0.4 11.7 3.1Z" fill="#D9BE7C"/></g>
  </g></g>
  <path d="M307.3 140V102.4Q307.3 98.2 303.1 98.2H275.3V85.6H308Q312.7 85.6 316.4 87.4Q320.1 89.1 322.3 93Q324.5 96.9 324.5 103.3V140ZM275.3 140V93.7H292.4V140Z M340.1 109.5 336.9 89.6 336.4 75.7H352.5L352 89.6L348.8 109.5ZM364.6 109.5 361.4 89.6 360.8 75.7H377L376.4 89.6L373.2 109.5Z M411 140.1 412.5 127.5Q419 128.9 422.3 127.5Q425.6 126 426.8 122.2Q428 118.5 428 113.1Q428 107.9 427.1 104.5Q426.2 101.1 424.3 99.4Q422.3 97.8 419.1 97.8Q417.3 97.8 415.5 98.5Q413.8 99.3 412.6 100.8Q411.3 102.4 411.1 104.9L407.5 98.2Q409.4 90.9 413.5 87.7Q417.7 84.4 422.9 84.4Q428.3 84.4 432.3 86.3Q436.3 88.2 439 91.9Q441.6 95.5 442.9 100.9Q444.1 106.3 444.1 113.1Q444.1 123.2 440.2 130.1Q436.3 137.1 428.9 139.9Q421.5 142.6 411 140.1ZM388.6 140 394.9 104 387.3 85.6H405L411.1 104.9L405.7 140Z M471 140 467.2 117.7V102.5Q467.2 99.5 466.2 98.6Q465.2 97.7 463.3 97.5L457.5 96.8L459.5 84.4L472.4 86Q478.2 86.6 481.3 90.2Q484.3 93.8 484.3 100.4V118.1L487.2 140ZM455.5 142 449.3 128.6Q456.5 126.5 461 123.3Q465.4 120.2 467.4 116.4L473.1 124.9Q471.3 128.7 469.2 132Q467 135.3 463.8 137.8Q460.6 140.3 455.5 142Z M526.5 140V102.4Q526.5 100.2 525.5 99.2Q524.4 98.2 522.3 98.2H496.3V85.6H527.2Q531.9 85.6 535.6 87.4Q539.3 89.1 541.5 93Q543.6 96.9 543.6 103.3V140ZM495.6 140V114.2L497.9 107.9H512.7V114.2V140Z M575.8 140V109.2Q575.8 105.3 576.5 102.5Q577.3 99.7 578.5 98.2H570.5V85.6H600.9V98.2H593.9Q593 100.5 592.9 103.6Q592.9 106.6 592.9 109.2V140Z M606.6 140V127.4H623Q626.1 127.4 627.9 125.9Q629.7 124.3 630.4 121.8Q631.1 119.3 631.1 116.6V109Q631.1 106.3 630.4 103.8Q629.7 101.3 627.9 99.7Q626.1 98.2 623 98.2H606.6V85.6H627.9Q634.9 85.6 639.4 88.7Q643.8 91.9 646 97.4Q648.2 102.9 648.2 109.9V115.7Q648.2 122.7 646 128.2Q643.8 133.7 639.4 136.9Q634.9 140 627.9 140Z M677.4 140V102.4Q677.4 100.2 676.4 99.2Q675.4 98.2 673.2 98.2H653.9V85.6H678.1Q682.8 85.6 686.5 87.4Q690.2 89.1 692.4 93Q694.5 96.9 694.5 103.3V140Z M725.8 140.1 727.3 127.5Q733.9 128.9 737.2 127.5Q740.5 126 741.6 122.2Q742.8 118.5 742.8 113.1Q742.8 107.9 741.9 104.5Q741 101.1 739.1 99.4Q737.2 97.8 734 97.8Q732.1 97.8 730.4 98.5Q728.6 99.3 727.4 100.8Q726.2 102.4 725.9 104.9L722.3 98.2Q724.2 90.9 728.4 87.7Q732.6 84.4 737.7 84.4Q743.2 84.4 747.2 86.3Q751.2 88.2 753.8 91.9Q756.5 95.5 757.7 100.9Q759 106.3 759 113.1Q759 123.2 755.1 130.1Q751.2 137.1 743.8 139.9Q736.3 142.6 725.8 140.1ZM703.4 140 709.7 104 702.1 85.6H719.9L725.9 104.9L720.5 140Z" fill="#F6F1E5"/>
  <rect x="572.0" y="164" width="190" height="3" fill="#D9BE7C"/>
  <path d="M353.4 210.4 351 190.8 355.1 188.8 357.1 206.5Q358.8 206.4 360.2 206Q361.6 205.6 362.7 204.9Q363.8 204.2 364.5 203.1Q365.3 202 365.6 200.5Q366 199 365.9 196.9V195.8Q365.9 194.4 365.4 193.2Q365 192.1 364.1 191.5Q363.2 190.8 361.8 190.8H351L350.6 187.5H362.2Q365.9 187.5 368 189.8Q370 192 370.1 195.7L370.2 197Q370.3 200.7 369.1 203.2Q367.9 205.7 365.6 207.2Q363.3 208.8 360.2 209.5Q357.1 210.2 353.4 210.4Z M380 210V192.2L379.5 187.5H383.7L384.2 192.2V210Z M401.8 210 402.3 206.8Q405.4 207.5 407.3 206.7Q409.2 205.9 410 203.7Q410.8 201.6 410.7 198.2Q410.7 195.4 410 193.7Q409.4 192.1 408.2 191.4Q407.1 190.6 405.6 190.6Q404.2 190.6 403.2 191.2Q402.2 191.8 401.6 192.8Q401 193.8 400.7 195L399.6 193Q400.4 190 402.2 188.6Q404.1 187.2 406.3 187.2Q408.2 187.2 409.7 187.8Q411.3 188.4 412.4 189.8Q413.5 191.1 414.1 193.2Q414.8 195.3 414.8 198.2Q414.9 202.8 413.4 205.7Q411.9 208.7 409 209.8Q406 211 401.8 210ZM393.8 210 396.7 194.5 393.6 187.5H398L400.8 194.7L398.1 210Z M422.9 211.3 422.3 208 430.4 206.4Q432.6 206 433.9 205.1Q435.3 204.2 436 202.8Q436.8 201.4 437.1 199.3Q437.4 197.2 437.4 194.2Q437.5 191.3 437.5 187.5H441.7Q441.7 191.6 441.6 194.9Q441.4 198.2 440.9 200.7Q440.3 203.2 439.1 205Q437.9 206.8 435.8 208Q433.7 209.2 430.4 209.8ZM429.2 207 424.2 187.5H428.4L433.3 207Z M477.4 210V194.8Q477.4 192.6 476.4 191.7Q475.4 190.8 473.8 190.8H464V187.5H474.9Q476.9 187.5 478.4 188.3Q479.9 189 480.8 190.6Q481.7 192.3 481.7 195V210ZM463.8 210V199.1L464.4 196.4H468.1V199.1V210Z M495 210 502.5 190.8H490.5V187.5H506.8V191.1L499.3 210ZM490.5 190.8V181.3H494.4V190.8Z M514.7 211.3 514.1 208 522.2 206.4Q524.4 206 525.7 205.1Q527.1 204.2 527.8 202.8Q528.6 201.4 528.9 199.3Q529.2 197.2 529.2 194.2Q529.3 191.3 529.3 187.5H533.5Q533.5 191.6 533.4 194.9Q533.2 198.2 532.7 200.7Q532.1 203.2 530.9 205Q529.7 206.8 527.6 208Q525.5 209.2 522.2 209.8ZM521 207 516 187.5H520.2L525.1 207Z M550.5 210 551 206.8Q554.1 207.5 556 206.7Q557.8 205.9 558.7 203.7Q559.5 201.6 559.4 198.2Q559.4 195.4 558.7 193.7Q558 192.1 556.9 191.4Q555.8 190.6 554.2 190.6Q552.8 190.6 551.8 191.2Q550.8 191.8 550.2 192.8Q549.6 193.8 549.4 195L548.3 193Q549 190 550.9 188.6Q552.8 187.2 555 187.2Q556.9 187.2 558.4 187.8Q560 188.4 561.1 189.8Q562.2 191.1 562.8 193.2Q563.4 195.3 563.5 198.2Q563.6 202.8 562.1 205.7Q560.6 208.7 557.6 209.8Q554.7 211 550.5 210ZM542.5 210 545.4 194.5 542.3 187.5H546.7L549.5 194.7L546.8 210Z M588.6 200Q587.4 200 586.6 199.2Q585.8 198.4 585.8 197.2Q585.8 195.9 586.6 195.1Q587.4 194.3 588.6 194.3Q589.7 194.3 590.5 195.1Q591.3 195.9 591.3 197.2Q591.3 198.4 590.5 199.2Q589.7 200 588.6 200Z M617.9 210 625.4 190.8H613.4V187.5H629.7V191.1L622.2 210ZM613.4 190.8V181.3H617.2V190.8Z M640.8 210.4 638.1 187.5H642.4L644.5 206.5Q646.6 206.3 648.3 205.7Q650 205 651.2 203.8Q652.4 202.7 653 200.9Q653.6 199.2 653.5 196.8V195.7Q653.5 194.3 653 193.2Q652.5 192.1 651.5 191.4Q650.5 190.7 648.9 190.6L646.9 190.5L647.2 187.1L649.6 187.2Q651.8 187.4 653.6 188.3Q655.4 189.2 656.5 190.9Q657.6 192.6 657.6 195.2L657.7 196.3Q657.8 200 656.6 202.6Q655.4 205.2 653.2 206.9Q650.9 208.5 647.7 209.4Q644.6 210.2 640.8 210.4Z M666.9 201.6V198.3V192.2L666.4 187.5H670.6L671.2 192.2V198.3L671.1 200.8Z M688.7 210 687.1 201.3V194.2Q687.1 192.4 686.7 191.6Q686.2 190.8 684.9 190.6L682.4 190.3L683 187L686.9 187.6Q689.3 188 690.4 189.5Q691.4 191 691.4 193.7V201.4L692.8 210ZM681.1 210.6 679.6 207.2Q682.4 206.2 684.3 204.7Q686.2 203.1 687.3 200.7L688.7 203.2Q688 205 686.9 206.4Q685.9 207.9 684.5 208.9Q683 210 681.1 210.6Z M702.3 201.6V198.3V192.2L701.8 187.5H706L706.6 192.2V198.3L706.5 200.8Z M725.6 210V195.5Q725.6 193.9 725.9 192.7Q726.2 191.6 726.7 190.8H715.9V187.5H733.7V190.8H730.7Q730.2 191.8 730 193.1Q729.8 194.4 729.8 195.5V210Z M753.6 210V194.8Q753.6 192.6 752.6 191.7Q751.6 190.8 750 190.8H742.4V187.5H751Q753 187.5 754.6 188.3Q756.1 189 757 190.6Q757.8 192.3 757.8 195V210ZM742.4 210V206.7H760.6V210Z" fill="#A9B6C9"/>
</svg>